<?xml version="1.0" encoding="utf-8"?>
<!-- Generator: Adobe Illustrator 19.0.1, SVG Export Plug-In . SVG Version: 6.00 Build 0)  -->
<svg version="1.1" id="Layer_1" xmlns="http://www.w3.org/2000/svg" xmlns:xlink="http://www.w3.org/1999/xlink" x="0px" y="0px"
	 width="617px" height="222.9px" viewBox="244 -46.9 617 222.9" style="enable-background:new 244 -46.9 617 222.9;"
	 xml:space="preserve">
<style type="text/css">
	.st0{fill:#FFFFFF;}
	.st1{fill:#4FC2E0;}
	.st2{fill:#59A846;}
	.st3{fill:#4EC2E0;}
</style>
<g>
	<g>
		<g>
			<path class="st0" d="M289.1-30.8L289.1-30.8c-0.4-6.4-5.7-11.5-12.2-11.5c-6,0-11,4.3-12.1,10c-0.1,0-0.3,0-0.4,0
				c-4.5,0-8.2,3-9.5,7c-0.2,0-0.4,0-0.6,0c-3.5-0.1-6.3,2.8-6.3,6.3c0,3.5,2.9,6.3,6.3,6.3c0.1,0,34.7,0,34.7,0
				c5,0,9.1-4.1,9.1-9.1C298.2-26.7,294.1-30.8,289.1-30.8z"/>
		</g>
		<g>
			<path class="st1" d="M272.1-33.5c-0.2-0.1-0.4-0.1-0.5-0.1s-0.2,0-0.3,0c-0.3,0.1-0.5,0.2-0.6,0.5l-1.3,2.3
				c-0.3,0.5-0.1,1.2,0.4,1.5l1,0.6c0,0.1,0,0.2,0,0.3c0.2,0.2,0.4,0.4,0.5,0.6l1,1.8c0.3,0.6,0.4,1.3,0.2,1.9
				c-0.1,0.4-0.4,0.8-0.7,1.2c0.2,0.1,0.3,0.3,0.4,0.5L273-23c0.4,0.3,0.9,0.6,1.3,0.8v1.1c0,0.6,0.5,1.1,1.1,1.1h2.6
				c0.6,0,1.1-0.5,1.1-1.1v-1.1c0.5-0.2,0.9-0.5,1.3-0.8l1,0.6c0.2,0.1,0.4,0.1,0.5,0.1c0.1,0,0.2,0,0.3,0c0.3-0.1,0.5-0.3,0.7-0.5
				l1.3-2.3c0.3-0.5,0.1-1.2-0.4-1.5l-1-0.6c0-0.3,0.1-0.5,0.1-0.8s0-0.5-0.1-0.8l1-0.6c0.3-0.1,0.4-0.4,0.5-0.7
				c0.1-0.3,0-0.6-0.1-0.8l-1.3-2.3c-0.2-0.3-0.6-0.5-0.9-0.5c-0.2,0-0.4,0-0.5,0.1l-1,0.6c-0.4-0.3-0.9-0.6-1.3-0.8v-1.2
				c0-0.6-0.5-1.1-1.1-1.1h-2.6c-0.6,0-1.1,0.5-1.1,1.1v1.1c-0.5,0.2-0.9,0.5-1.3,0.8L272.1-33.5z M276.8-31.9
				c2.2,0,3.9,1.8,3.9,3.9c0,2.2-1.8,3.9-3.9,3.9c-2.2,0-3.9-1.8-3.9-3.9C272.9-30.2,274.6-31.9,276.8-31.9z"/>
			<path class="st1" d="M266.7-17.7v-0.9c0.4-0.2,0.7-0.4,1.1-0.6l0.8,0.5c0.1,0.1,0.3,0.1,0.4,0.1c0.1,0,0.1,0,0.2,0
				c0.2-0.1,0.4-0.2,0.5-0.4l1-1.8c0.2-0.4,0.1-0.9-0.3-1.2l-0.7-0.5c0-0.2,0.1-0.4,0.1-0.6s0-0.4-0.1-0.6l0.8-0.5
				c0.2-0.1,0.3-0.3,0.4-0.5c0.1-0.2,0-0.5-0.1-0.7l-1-1.8c-0.2-0.3-0.4-0.4-0.7-0.4c-0.1,0-0.3,0-0.4,0.1l-0.9,0.5
				c-0.3-0.3-0.7-0.5-1.1-0.6v-0.9c0-0.5-0.4-0.9-0.9-0.9h-2c-0.5,0-0.9,0.4-0.9,0.9v0.9c-0.4,0.2-0.7,0.4-1.1,0.6l-0.7-0.5
				c-0.1-0.1-0.3-0.1-0.4-0.1s-0.2,0-0.2,0c-0.2,0.1-0.4,0.2-0.5,0.4l-1,1.8c-0.2,0.4-0.1,0.9,0.3,1.2l0.8,0.5
				c0,0.2-0.1,0.4-0.1,0.6s0,0.4,0.1,0.6l-0.8,0.5c-0.4,0.2-0.6,0.8-0.3,1.2l1,1.8c0.1,0.2,0.3,0.3,0.5,0.4c0.1,0,0.1,0,0.2,0
				c0.2,0,0.3,0,0.4-0.1l0.8-0.5c0.3,0.3,0.7,0.5,1.1,0.6v0.9c0,0.5,0.4,0.9,0.9,0.9h2.1C266.4-16.8,266.7-17.2,266.7-17.7z
				 M262.6-23.1c0-1.3,1.1-2.4,2.4-2.4c1.3,0,2.4,1.1,2.4,2.4c0,1.3-1.1,2.4-2.4,2.4C263.5-20.7,262.6-21.8,262.6-23.1z"/>
		</g>
	</g>
	<g>
		<g>
			<path class="st0" d="M317.4-24.3l-2.8,0.3c-0.2-1.7-1.5-2.7-3.2-2.7c-2.1,0-3.6,1.5-3.6,4.3c0,2.7,1.5,4.3,3.6,4.3
				c1.8,0,2.9-1,3.2-2.6l2.8,0.3c-0.5,2.9-2.8,4.8-5.9,4.8c-3.7,0-6.4-2.5-6.4-6.6c0-4.3,2.7-6.6,6.4-6.6
				C314.6-29.1,317-27.2,317.4-24.3z"/>
			<path class="st0" d="M320.3-16.1v-19.4h2.8v19.4H320.3z"/>
			<path class="st0" d="M338.7-22.5c0,4.1-2.9,6.6-6.6,6.6c-3.9,0-6.7-2.6-6.7-6.6c0-4.1,2.9-6.6,6.7-6.6
				C335.8-29.1,338.7-26.5,338.7-22.5z M328.2-22.5c0,2.7,1.6,4.3,3.9,4.3c2.2,0,3.9-1.6,3.9-4.3c0-2.7-1.7-4.3-3.9-4.3
				C329.8-26.6,328.2-25.2,328.2-22.5z"/>
			<path class="st0" d="M349.4-16.1v-1.7c-0.5,1-1.6,1.9-3.7,1.9c-2.9,0-4.7-2.1-4.7-5.1v-7.9h2.8v7.4c0,1.9,0.9,3,2.6,3
				c1.8,0,2.8-1.5,2.8-3.1v-7.3h2.8v12.8L349.4-16.1L349.4-16.1L349.4-16.1z"/>
			<path class="st0" d="M364.6-16.1v-1.8c-0.7,1.2-2.2,2-4.3,2c-3.6,0-6.1-2.6-6.1-6.6c0-4.1,2.6-6.6,6.1-6.6c1.9,0,3.4,0.8,4.1,1.8
				v-8.1h2.8v19.4L364.6-16.1L364.6-16.1z M357.1-22.5c0,2.7,1.6,4.3,3.8,4.3c2.1,0,3.7-1.4,3.7-3.9v-0.7c0-2.5-1.5-3.9-3.7-3.9
				C358.7-26.6,357.1-25.2,357.1-22.5z"/>
			<path class="st0" d="M389.8-23.8v7.7H387v-7.3c0-1.9-1-3.1-2.7-3.1c-1.6,0-2.6,1.1-2.8,2.7v0.1v7.7h-2.9v-7.3
				c0-1.9-1.1-3.1-2.6-3.1c-1.8,0-2.9,1.4-2.9,3.2v7.3h-2.8v-13h2.7v1.7c0.7-1.1,1.8-1.9,3.7-1.9c1.8,0,3.3,0.8,4.1,2.3
				C381.6-28,383-29,385-29C387.8-29.1,389.8-26.9,389.8-23.8z"/>
			<path class="st0" d="M394.4-21.4c0.2,2,1.5,3.2,3.5,3.2c1.6,0,2.7-0.7,3.1-1.8l2.8,0.2c-0.5,2.3-2.8,4.1-5.7,4.1
				c-3.8,0-6.4-2.5-6.4-6.6c0-4.2,2.7-6.6,6.4-6.6c3.7,0,5.9,2.4,5.9,6.3v1.4h-9.5L394.4-21.4L394.4-21.4z M394.5-23.6h6.5
				c-0.1-1.9-1.1-3.1-3.2-3.1C396-26.6,394.6-25.6,394.5-23.6z"/>
			<path class="st0" d="M408.6-27.3c0.7-1,2.2-1.8,4.1-1.8c3.6,0,6.1,2.6,6.1,6.6c0,4.1-2.6,6.6-6.1,6.6c-2,0-3.6-0.9-4.3-2v1.8
				h-2.7v-19.4h2.8v8.1L408.6-27.3L408.6-27.3z M408.6-22.8v0.7c0,2.6,1.5,3.9,3.7,3.9c2.2,0,3.8-1.5,3.8-4.3c0-2.7-1.6-4.3-3.8-4.3
				C410-26.6,408.6-25.4,408.6-22.8z"/>
		</g>
	</g>
</g>
<g>
	<g>
		<g>
			<path class="st1" d="M289.1,9.4L289.1,9.4c-0.4-6.4-5.7-11.5-12.2-11.5c-6,0-11,4.3-12.1,10c-0.1,0-0.3,0-0.4,0
				c-4.5,0-8.2,3-9.5,7c-0.2,0-0.4,0-0.6,0c-3.5-0.1-6.3,2.8-6.3,6.3c0,3.5,2.9,6.3,6.3,6.3c0.1,0,34.7,0,34.7,0
				c5,0,9.1-4.1,9.1-9.1C298.2,13.5,294.1,9.4,289.1,9.4z"/>
		</g>
		<g>
			<path class="st0" d="M272.1,6.7c-0.2-0.1-0.4-0.1-0.5-0.1s-0.2,0-0.3,0c-0.3,0.1-0.5,0.2-0.6,0.5l-1.3,2.3
				c-0.3,0.5-0.1,1.2,0.4,1.5l1,0.6c0,0.1,0,0.2,0,0.3c0.2,0.2,0.4,0.4,0.5,0.6l1,1.8c0.3,0.6,0.4,1.3,0.2,1.9
				c-0.1,0.4-0.4,0.8-0.7,1.2c0.2,0.1,0.3,0.3,0.4,0.5l0.9-0.5c0.4,0.3,0.9,0.6,1.3,0.8v1.1c0,0.6,0.5,1.1,1.1,1.1h2.6
				c0.6,0,1.1-0.5,1.1-1.1V18c0.5-0.2,0.9-0.5,1.3-0.8l1,0.6c0.2,0.1,0.4,0.1,0.5,0.1c0.1,0,0.2,0,0.3,0c0.3-0.1,0.5-0.3,0.7-0.5
				l1.3-2.3c0.3-0.5,0.1-1.2-0.4-1.5l-1-0.6c0-0.3,0.1-0.5,0.1-0.8c0-0.3,0-0.5-0.1-0.8l1-0.6c0.3-0.1,0.4-0.4,0.5-0.7
				c0.1-0.3,0-0.6-0.1-0.8l-1.3-2.3c-0.2-0.3-0.6-0.5-0.9-0.5c-0.2,0-0.4,0-0.5,0.1l-1,0.6c-0.4-0.3-0.9-0.6-1.3-0.8V5.3
				c0-0.6-0.5-1.1-1.1-1.1h-2.6c-0.6,0-1.1,0.5-1.1,1.1v1.1c-0.5,0.2-0.9,0.5-1.3,0.8L272.1,6.7z M276.8,8.3c2.2,0,3.9,1.8,3.9,3.9
				c0,2.2-1.8,3.9-3.9,3.9c-2.2,0-3.9-1.8-3.9-3.9C272.9,10,274.6,8.3,276.8,8.3z"/>
			<path class="st0" d="M266.7,22.5v-0.9c0.4-0.2,0.7-0.4,1.1-0.6l0.8,0.5c0.1,0.1,0.3,0.1,0.4,0.1c0.1,0,0.1,0,0.2,0
				c0.2-0.1,0.4-0.2,0.5-0.4l1-1.8c0.2-0.4,0.1-0.9-0.3-1.2l-0.7-0.5c0-0.2,0.1-0.4,0.1-0.6c0-0.2,0-0.4-0.1-0.6l0.8-0.5
				c0.2-0.1,0.3-0.3,0.4-0.5c0.1-0.2,0-0.5-0.1-0.7l-1-1.8c-0.2-0.3-0.4-0.4-0.7-0.4c-0.1,0-0.3,0-0.4,0.1l-0.9,0.5
				c-0.3-0.3-0.7-0.5-1.1-0.6v-0.9c0-0.5-0.4-0.9-0.9-0.9h-2c-0.5,0-0.9,0.4-0.9,0.9v0.9c-0.4,0.2-0.7,0.4-1.1,0.6l-0.7-0.5
				c-0.1-0.1-0.3-0.1-0.4-0.1s-0.2,0-0.2,0c-0.2,0.1-0.4,0.2-0.5,0.4l-1,1.8c-0.2,0.4-0.1,0.9,0.3,1.2l0.8,0.5
				c0,0.2-0.1,0.4-0.1,0.6s0,0.4,0.1,0.6l-0.8,0.5c-0.4,0.2-0.6,0.8-0.3,1.2l1,1.8c0.1,0.2,0.3,0.3,0.5,0.4c0.1,0,0.1,0,0.2,0
				c0.2,0,0.3,0,0.4-0.1L262,21c0.3,0.3,0.7,0.5,1.1,0.6v0.9c0,0.5,0.4,0.9,0.9,0.9h2.1C266.4,23.4,266.7,23,266.7,22.5z
				 M262.6,17.1c0-1.3,1.1-2.4,2.4-2.4c1.3,0,2.4,1.1,2.4,2.4c0,1.3-1.1,2.4-2.4,2.4C263.5,19.5,262.6,18.4,262.6,17.1z"/>
		</g>
	</g>
	<g>
		<g>
			<path class="st1" d="M317.4,15.9l-2.8,0.3c-0.2-1.7-1.5-2.7-3.2-2.7c-2.1,0-3.6,1.5-3.6,4.3c0,2.7,1.5,4.3,3.6,4.3
				c1.8,0,2.9-1,3.2-2.6l2.8,0.3c-0.5,2.9-2.8,4.8-5.9,4.8c-3.7,0-6.4-2.5-6.4-6.6c0-4.3,2.7-6.6,6.4-6.6
				C314.6,11.1,317,13,317.4,15.9z"/>
			<path class="st1" d="M320.3,24.1V4.7h2.8v19.4L320.3,24.1L320.3,24.1z"/>
			<path class="st1" d="M338.7,17.7c0,4.1-2.9,6.6-6.6,6.6c-3.9,0-6.7-2.6-6.7-6.6s2.9-6.6,6.7-6.6
				C335.8,11.1,338.7,13.7,338.7,17.7z M328.2,17.7c0,2.7,1.6,4.3,3.9,4.3c2.2,0,3.9-1.6,3.9-4.3s-1.7-4.3-3.9-4.3
				C329.8,13.6,328.2,15,328.2,17.7z"/>
			<path class="st1" d="M349.4,24.1v-1.7c-0.5,1-1.6,1.9-3.7,1.9c-2.9,0-4.7-2.1-4.7-5.1v-7.9h2.8v7.4c0,1.9,0.9,3,2.6,3
				c1.8,0,2.8-1.5,2.8-3.2v-7.3h2.8V24h-2.6L349.4,24.1L349.4,24.1z"/>
			<path class="st1" d="M364.6,24.1v-1.8c-0.7,1.2-2.2,2-4.3,2c-3.6,0-6.1-2.6-6.1-6.6s2.6-6.6,6.1-6.6c1.9,0,3.4,0.8,4.1,1.8V4.7
				h2.8v19.4L364.6,24.1L364.6,24.1z M357.1,17.7c0,2.7,1.6,4.3,3.8,4.3c2.1,0,3.7-1.4,3.7-3.9v-0.7c0-2.5-1.5-3.9-3.7-3.9
				C358.7,13.6,357.1,15,357.1,17.7z"/>
			<path class="st2" d="M389.8,16.4v7.7H387v-7.3c0-1.9-1-3.1-2.7-3.1c-1.6,0-2.6,1.1-2.8,2.7v0.1v7.7h-2.9v-7.3
				c0-1.9-1.1-3.1-2.6-3.1c-1.8,0-2.9,1.4-2.9,3.2v7.3h-2.8v-13h2.7v1.7c0.7-1.1,1.8-1.9,3.7-1.9c1.8,0,3.3,0.8,4.1,2.3
				c0.8-1.3,2.2-2.3,4.2-2.3C387.8,11.1,389.8,13.3,389.8,16.4z"/>
			<path class="st2" d="M394.4,18.8c0.2,2,1.5,3.2,3.5,3.2c1.6,0,2.7-0.7,3.1-1.8l2.8,0.2c-0.5,2.3-2.8,4.1-5.7,4.1
				c-3.8,0-6.4-2.5-6.4-6.6c0-4.2,2.7-6.6,6.4-6.6c3.7,0,5.9,2.4,5.9,6.3v1.4L394.4,18.8L394.4,18.8L394.4,18.8z M394.5,16.6h6.5
				c-0.1-1.9-1.1-3.1-3.2-3.1C396,13.6,394.6,14.6,394.5,16.6z"/>
			<path class="st2" d="M408.6,12.9c0.7-1,2.2-1.8,4.1-1.8c3.6,0,6.1,2.6,6.1,6.6c0,4.1-2.6,6.6-6.1,6.6c-2,0-3.6-0.9-4.3-2v1.8
				h-2.7V4.7h2.8v8.1H408.6z M408.6,17.4v0.7c0,2.6,1.5,3.9,3.7,3.9c2.2,0,3.8-1.5,3.8-4.3c0-2.7-1.6-4.3-3.8-4.3
				C410,13.6,408.6,14.8,408.6,17.4z"/>
		</g>
	</g>
</g>
<path class="st3" d="M487.6-39.3c-9.6,0-17.3,7.7-17.3,17.3s7.7,17.3,17.3,17.3c9.6,0,17.3-7.7,17.3-17.3S497.2-39.3,487.6-39.3z
	 M492.3-11.9c-0.7,0-4.7-0.1-5.7-0.1c-1,0-6.3-1.6-6.3-7.4c0-1,0-2.1,0-3.1c0-1,0-1.9,0-2.9c0-0.3,0-0.6,0-0.8
	c0-1.5-0.1-3.1,0.3-4.5c0.4-1.1,1.2-1.5,2.2-1.5c2.5,0,2.7,2.6,2.7,5.2h7.3c1.2,0,2,1.2,2,3c0,1.8-1.9,2.2-2.9,2.2h-6.5
	c0,1.1-0.1,2-0.1,2.5c0,1.1,0.4,2.4,3.2,2.4h3.9c1,0,2.4,0.7,2.4,2.8C495-12.1,493-11.9,492.3-11.9z"/>
<path class="st3" d="M447.6-39.3c-9.7,0-17.6,7.9-17.6,17.6c0,9.7,7.9,17.6,17.6,17.6s17.6-7.9,17.6-17.6
	C465.2-31.4,457.3-39.3,447.6-39.3z M452.3-21.8h-3c0,4.9,0,10.9,0,10.9h-4.5c0,0,0-5.9,0-10.9h-2.1v-3.8h2.1v-2.5
	c0-1.8,0.8-4.6,4.6-4.6l3.3,0v3.7c0,0-2,0-2.4,0c-0.4,0-1,0.2-1,1v2.3h3.4L452.3-21.8z"/>
<g>
	<path class="st3" d="M573.3-15.9c-1.2,0-2.3,0.4-3.2,1.1l-9.3-5.6c0-0.3,0.1-0.6,0.1-0.9c0-0.3,0-0.6-0.1-0.9l9.3-5.6
		c0.9,0.7,2,1.1,3.2,1.1c3,0,5.3-2.4,5.3-5.3c0-3-2.4-5.3-5.3-5.3c-2.9,0-5.3,2.4-5.3,5.3c0,0.3,0,0.6,0.1,0.9l-9.3,5.6
		c-0.9-0.7-2-1.1-3.2-1.1c-3,0-5.3,2.4-5.3,5.3c0,3,2.4,5.3,5.3,5.3c1.2,0,2.3-0.4,3.2-1.1l9.3,5.6c0,0.3-0.1,0.6-0.1,0.9
		c0,3,2.4,5.3,5.3,5.3s5.3-2.4,5.3-5.3C578.6-13.5,576.2-15.9,573.3-15.9z"/>
</g>
<g>
	<path class="st3" d="M527.4-39.3c-9.7,0-17.6,7.9-17.6,17.6c0,9.7,7.9,17.6,17.6,17.6c9.7,0,17.6-7.9,17.6-17.6
		C545-31.4,537.1-39.3,527.4-39.3z M537.2-13.2c0,0.8-0.6,1.4-1.4,1.4H519c-0.8,0-1.4-0.6-1.4-1.4v-16.9c0-0.8,0.6-1.4,1.4-1.4h16.7
		c0.8,0,1.4,0.6,1.4,1.4V-13.2z"/>
	<path class="st3" d="M530.8-24.1c-1.6,0-2.3,0.9-2.7,1.5v0h0c0,0,0,0,0,0v-1.3h-3c0,0.8,0,8.9,0,8.9h3v-5c0-0.3,0-0.5,0.1-0.7
		c0.2-0.5,0.7-1.1,1.5-1.1c1.1,0,1.5,0.8,1.5,2v4.8h3v-5.1C534.2-22.9,532.7-24.1,530.8-24.1z"/>
	<path class="st3" d="M522.1-28.2c-1,0-1.7,0.7-1.7,1.5c0,0.9,0.6,1.5,1.6,1.5h0c1,0,1.7-0.7,1.7-1.5
		C523.7-27.5,523.1-28.2,522.1-28.2z"/>
	<rect x="520.6" y="-23.9" class="st3" width="3" height="8.9"/>
</g>
<g>
	<g>
		<g>
			<path class="st0" d="M445.2,9.2h-0.4c-0.4,0-0.8,0.3-0.8,0.7v3h1.9v-3C446,9.5,445.6,9.2,445.2,9.2z"/>
			<path class="st0" d="M450.4,9.2H450c-0.4,0-0.8,0.3-0.8,0.7v3h1.9v-3C451.1,9.5,450.8,9.2,450.4,9.2z"/>
			<path class="st0" d="M447.6,3.9c-7.5,0-13.5,6.1-13.5,13.5c0,3.6,1.4,7,3.9,9.5c1.5,1.5,3.4,2.7,5.4,3.3c0.1,0,0.3,0.1,0.4,0.1
				c0.5,0,1.1-0.3,1.2-0.9c0.2-0.7-0.2-1.4-0.8-1.6c-1.6-0.5-3.1-1.5-4.3-2.7c-2.1-2.1-3.2-4.8-3.2-7.7c0-6,4.9-10.9,10.9-10.9
				s10.9,4.9,10.9,10.9c0,2.9-1.1,5.7-3.2,7.7c-0.8,0.7-2.8,2.1-3.9,2.1c-0.6,0-1.1-0.2-1.4-0.6c-0.9-1-1.1-3.1-1.1-4.6
				c2.3-0.1,4.1-2,4.1-4.3v-4.1h-10.6v4.1c0,2.2,1.7,4.1,3.9,4.3c0,1.7,0.2,4.6,1.8,6.4c0.9,1,2,1.5,3.4,1.5c2.5,0,5.4-2.5,5.7-2.8
				l0,0c2.6-2.6,4-6,4-9.6C461.1,10,455.1,3.9,447.6,3.9z"/>
		</g>
	</g>
</g>
<g>
	<g>
		<path class="st3" d="M305.6,94h-21.9c-0.8,0-1.5,0.7-1.5,1.5c0,0.8,0.7,1.5,1.5,1.5h21.9c0.8,0,1.5-0.7,1.5-1.5
			C307.1,94.7,306.4,94,305.6,94z"/>
		<path class="st3" d="M332,76.4h-2.7V54c0-4.5-3.6-8.1-8.1-8.1h-53.3c-4.5,0-8.1,3.6-8.1,8.1v6.3h-7.1c-2.7,0-4.8,2.2-4.8,4.8v28.6
			c0,2.7,2.2,4.8,4.8,4.8h16.1c2.7,0,4.8-2.2,4.8-4.8v-1.5h47.5V95c0,1.7,1.3,3.1,2.9,3.1h7.9c1.6,0,2.9-1.4,2.9-3.1V79.4
			C334.8,77.7,333.5,76.4,332,76.4z M262.6,96.5c-0.2,0.4-0.5,0.7-1,0.7h-2.1c-0.4,0-0.8-0.3-0.9-0.7c0-0.1-0.1-0.2-0.1-0.3
			c0-0.6,0.4-1,1-1h2.1c0.6,0,1,0.4,1,1C262.6,96.3,262.6,96.4,262.6,96.5z M271.7,90.2v2v1.5l0,0h-21.8l0,0V65.1
			c0-1.6,1.3-2.8,2.8-2.8h7.1h2h7c1.6,0,2.8,1.3,2.8,2.8v25.1L271.7,90.2L271.7,90.2z M321.3,79.4v10.8h-47.5V65.1
			c0-2.7-2.2-4.8-4.8-4.8h-7v-6.2c0-3.4,2.7-6.1,6.1-6.1h53.3c3.4,0,6.1,2.7,6.1,6.1v22.3h-3.3C322.6,76.4,321.3,77.7,321.3,79.4z
			 M328.7,96.1c-0.1,0.1-0.2,0.2-0.4,0.2h-0.5c-0.2,0-0.3-0.1-0.4-0.2c0-0.1-0.1-0.2-0.1-0.3c0-0.3,0.2-0.5,0.5-0.5h0.5
			c0.3,0,0.5,0.2,0.5,0.5C328.8,95.9,328.7,96,328.7,96.1z M332.8,94h-9.6v-2v-2.1v-9.7h4.1h2h3.5C332.8,80.2,332.8,94,332.8,94z"/>
	</g>
</g>
<path class="st3" d="M397.7,50c-14.1,0-24.1-10.6-24.2-10.7c-0.2-0.2-0.5-0.4-0.8-0.4s-0.6,0.2-0.8,0.4c-0.2,0.1-10,10.7-24.2,10.7
	c-0.6,0-1.1,0.5-1.1,1.1c0,20,6.9,33.5,12.8,41.4c6.3,8.5,12.6,12.2,12.8,12.4c0.2,0.1,0.4,0.2,0.6,0.2c0.2,0,0.4-0.1,0.6-0.2
	c0.2-0.2,6.5-3.9,12.8-12.4c5.8-7.8,12.8-21.3,12.8-41.4C398.8,50.5,398.3,50,397.7,50z M384.3,91c-4.9,6.7-9.9,10.3-11.6,11.5
	c-1.6-1.1-6.6-4.7-11.5-11.4c-5.5-7.4-12-20.1-12.3-38.8c12.3-0.5,21.2-8,23.8-10.6c2.7,2.6,11.5,10.1,23.8,10.5
	C396.2,70.9,389.8,83.6,384.3,91z M364.8,59.8v4.1h-0.7c-2.5,0-4.5,2-4.5,4.5v16.2c0,2.5,2,4.5,4.5,4.5h17c2.5,0,4.5-2,4.5-4.5V68.4
	c0-2.5-2-4.5-4.5-4.5h-14.1v-4.2c0-3.1,2.5-5.6,5.6-5.6s5.6,2.5,5.6,5.6v4.8c0,0.6,0.5,1.1,1.1,1.1c0.6,0,1.1-0.5,1.1-1.1v-4.8
	c0-4.4-3.6-7.8-7.8-7.8C368.4,51.9,364.8,55.4,364.8,59.8z M383.5,68.5v16.2c0,1.3-1.1,2.3-2.3,2.3h-17.1c-1.3,0-2.3-1.1-2.3-2.3
	V68.5c0-1.3,1-2.3,2.3-2.3h17C382.4,66.2,383.5,67.2,383.5,68.5z M370.5,80.5c-0.5-0.3-0.6-1-0.5-1.5l1.1-3.3
	c-0.4-0.4-0.6-0.9-0.6-1.5c0-1.2,1-2.2,2.2-2.2s2.2,1,2.2,2.2c0,0.6-0.2,1.1-0.6,1.5l1.1,3.3c0.2,0.6,0,1.2-0.5,1.5
	c-0.5,0.4-1.3,0.6-2.2,0.6S371,80.9,370.5,80.5z"/>
<g>
	<path class="st3" d="M458.7,62c-0.4,0-0.9,0-1.4,0.1c-2.6-3.4-6.6-5.3-10.9-5.3c-1.9-5.2-7-8.8-12.6-8.8c-7.4,0-13.4,6-13.4,13.4
		c0,0.5,0,1,0.1,1.6c-5,2.1-8.3,6.9-8.3,12.4c0,7.4,6,13.4,13.4,13.4h33c7.4,0,13.4-6,13.4-13.4S466.1,62,458.7,62z M458.7,86h-33
		c-5.8,0-10.6-4.8-10.6-10.6c0-4.7,3-8.8,7.5-10.1l1.2-0.4l-0.3-1.3c-0.2-0.7-0.2-1.5-0.2-2.2c0-5.8,4.8-10.6,10.6-10.6
		c4.8,0,9,3.2,10.2,7.8l0.3,1.2l1.2-0.1c0.4,0,0.7-0.1,1.1-0.1c3.6,0,6.9,1.8,8.8,4.7l0.5,0.8l0.9-0.2c0.6-0.1,1.2-0.2,1.8-0.2
		c5.8,0,10.6,4.8,10.6,10.6C469.3,81.3,464.6,86,458.7,86z M446.4,94.9h9.1v2.3h-9.1V98h-10v-0.7h-11.2v-2.3h11.2v-1.2h2.9v-2.9
		l4.2,0v2.9h2.9V94.9L446.4,94.9L446.4,94.9z"/>
</g>
<g>
	<g>
		<path class="st0" d="M618.6-11.5c0-0.6-0.4-1.1-1-1.1c-0.6,0-1,0.5-1,1.1v2.2l-4.1-4.1c-0.4-0.4-1-0.4-1.4,0c-0.4,0.4-0.4,1,0,1.4
			l4,4H613c-0.6,0-1.1,0.5-1.1,1c0,0.6,0.5,1,1.1,1h4.6c0.6,0,1.1-0.4,1.1-1c0,0,0,0,0,0c0,0,0,0,0-0.1L618.6-11.5L618.6-11.5
			L618.6-11.5z"/>
		<path class="st0" d="M593.4-13.3l-4.1,4.1v-2.2c0-0.6-0.5-1.1-1-1.1c-0.6,0-1,0.5-1,1.1l0,4.5c0,0,0,0,0,0.1c0,0,0,0,0,0
			c0,0.6,0.5,1,1.1,1h4.6c0.6,0,1.1-0.4,1.1-1c0-0.6-0.5-1-1.1-1h-2.2l4-4c0.4-0.4,0.4-1,0-1.4C594.5-13.7,593.8-13.7,593.4-13.3z"
			/>
		<path class="st0" d="M612.6-29.1l4.1-4.1v2.2c0,0.6,0.5,1.1,1,1.1c0.6,0,1-0.5,1-1.1v-4.5c0,0,0,0,0-0.1c0,0,0,0,0,0
			c0-0.6-0.5-1-1.1-1H613c-0.6,0-1.1,0.4-1.1,1c0,0.6,0.5,1,1.1,1h2.2l-4,4c-0.4,0.4-0.4,1,0,1.4C611.5-28.7,612.2-28.7,612.6-29.1z
			"/>
		<path class="st0" d="M590.8-34.5h2.2c0.6,0,1.1-0.5,1.1-1c0-0.6-0.5-1-1.1-1h-4.6c-0.6,0-1.1,0.4-1.1,1c0,0,0,0,0,0c0,0,0,0,0,0.1
			l0,4.5c0,0.6,0.4,1.1,1,1.1c0.6,0,1-0.5,1-1.1v-2.2l4,4.1c0.4,0.4,1,0.4,1.4,0c0.4-0.4,0.4-1,0-1.4L590.8-34.5z"/>
	</g>
	<rect x="596.8" y="-27.4" class="st0" width="12.4" height="12.4"/>
</g>
<g>
	
		<rect x="637.3" y="-35.6" transform="matrix(-0.7071 0.7071 -0.7071 -0.7071 1076.7062 -490.5718)" class="st0" width="5.3" height="26.7"/>
	
		<rect x="637.3" y="-35.6" transform="matrix(0.7071 0.7071 -0.7071 0.7071 171.6793 -459.0479)" class="st0" width="5.3" height="26.7"/>
</g>
<g>
	<g>
		<path class="st3" d="M487.1,13.7c0-1.8-1.1-4.6-3.1-4.6c-0.6,0-1.3,0.3-1.7,0.8c-0.4,0.5-0.5,1.2-0.5,1.8c0,1.7,1,4.4,3.1,4.4
			c0.6,0,1.3-0.3,1.7-0.7C487,14.9,487.1,14.1,487.1,13.7z"/>
		<path class="st3" d="M505,17c0-9.6-7.8-17.4-17.4-17.4c-9.6,0-17.4,7.8-17.4,17.4c0,9.6,7.8,17.4,17.4,17.4
			C497.2,34.4,505,26.6,505,17z M493,13.7h1.3v2.7h2.7v1.3h-2.7v2.7H493v-2.7h-2.7v-1.3h2.7V13.7z M478.3,23.6c0-0.9,0.4-2.2,1.9-3
			c1.5-0.9,3.6-1.1,4.7-1.1c-0.3-0.4-0.7-0.9-0.7-1.7c0-0.4,0.1-0.7,0.2-1c-0.3,0-0.5,0-0.8,0c-2.6,0-4.1-2-4.1-3.9
			c0-1.1,0.5-2.4,1.6-3.3c1.4-1.2,3.1-1.4,4.4-1.4h5.1L489,9.2h-1.5l0,0c0.6,0.5,1.8,1.5,1.8,3.3c0,1.8-1,2.7-2.1,3.5
			c-0.3,0.3-0.7,0.7-0.7,1.2s0.4,0.8,0.6,1.1L488,19c1.1,0.9,2.1,1.8,2.1,3.5c0,2.3-2.3,4.7-6.5,4.7C480,27.2,478.3,25.5,478.3,23.6
			z"/>
		<path class="st3" d="M485.7,20.2c-0.2,0-0.3,0-0.6,0c-0.2,0-1.6,0-2.6,0.4c-0.5,0.2-2.1,0.8-2.1,2.5s1.7,3,4.4,3
			c2.4,0,3.6-1.1,3.6-2.7C488.4,22.2,487.6,21.5,485.7,20.2z"/>
	</g>
</g>
</svg>
